<mxfile host="app.diagrams.net" modified="2024-06-16T17:41:38.629Z" agent="Mozilla/5.0 (Windows NT 10.0; Win64; x64) AppleWebKit/537.36 (KHTML, like Gecko) Chrome/126.0.0.0 Safari/537.36 Edg/126.0.0.0" etag="ieXGFaWWAioGQJyekbiw" version="24.5.4" type="device">
  <diagram name="Страница — 1" id="0wB1KXpxonuGOUO6NQHq">
    <mxGraphModel dx="1310" dy="819" grid="1" gridSize="10" guides="1" tooltips="1" connect="1" arrows="1" fold="1" page="1" pageScale="1" pageWidth="1169" pageHeight="827" math="0" shadow="0">
      <root>
        <mxCell id="0" />
        <mxCell id="1" parent="0" />
        <mxCell id="Bau23HHEuV97FUseU5D_-8" value="&lt;span style=&quot;font-style: normal;&quot;&gt;InstallerModule&lt;/span&gt;" style="rounded=1;whiteSpace=wrap;html=1;absoluteArcSize=1;arcSize=14;strokeWidth=2;fillColor=#ffe6cc;strokeColor=#A9C4EB;fontSize=22;align=center;verticalAlign=middle;fontFamily=Times New Roman;fontStyle=3;fontColor=#CDA2BE;" vertex="1" parent="1">
          <mxGeometry x="502.5" y="200" width="175" height="40" as="geometry" />
        </mxCell>
        <mxCell id="Bau23HHEuV97FUseU5D_-9" value="&lt;span style=&quot;font-style: normal;&quot;&gt;AnyModule&lt;/span&gt;" style="rounded=1;whiteSpace=wrap;html=1;absoluteArcSize=1;arcSize=14;strokeWidth=2;fillColor=#ffe6cc;strokeColor=#A9C4EB;fontSize=22;align=center;verticalAlign=middle;fontFamily=Times New Roman;fontStyle=3;fontColor=#CDA2BE;" vertex="1" parent="1">
          <mxGeometry x="510" y="320" width="160" height="40" as="geometry" />
        </mxCell>
        <mxCell id="Bau23HHEuV97FUseU5D_-10" style="edgeStyle=orthogonalEdgeStyle;rounded=1;orthogonalLoop=1;jettySize=auto;html=1;exitX=0;exitY=0.5;exitDx=0;exitDy=0;exitPerimeter=0;entryX=0;entryY=0.5;entryDx=0;entryDy=0;strokeColor=#A9C4EB;strokeWidth=2;align=center;verticalAlign=middle;arcSize=14;fontFamily=Times New Roman;fontSize=22;fontColor=#CDA2BE;fontStyle=3;labelBackgroundColor=default;endArrow=classic;fillColor=#ffe6cc;" edge="1" parent="1" source="Bau23HHEuV97FUseU5D_-11" target="Bau23HHEuV97FUseU5D_-9">
          <mxGeometry relative="1" as="geometry" />
        </mxCell>
        <mxCell id="Bau23HHEuV97FUseU5D_-11" value="ConfigData" style="strokeWidth=2;html=1;shape=mxgraph.flowchart.stored_data;whiteSpace=wrap;rounded=1;strokeColor=#A9C4EB;align=center;verticalAlign=middle;arcSize=14;fontFamily=Times New Roman;fontSize=22;fontColor=#CDA2BE;fontStyle=3;labelBackgroundColor=none;fillColor=#ffe6cc;direction=north;" vertex="1" parent="1">
          <mxGeometry x="395" y="260" width="115" height="40" as="geometry" />
        </mxCell>
        <mxCell id="Bau23HHEuV97FUseU5D_-12" style="edgeStyle=orthogonalEdgeStyle;rounded=1;orthogonalLoop=1;jettySize=auto;html=1;exitX=0;exitY=0.5;exitDx=0;exitDy=0;exitPerimeter=0;entryX=1;entryY=0.5;entryDx=0;entryDy=0;strokeColor=#A9C4EB;strokeWidth=2;align=center;verticalAlign=middle;arcSize=14;fontFamily=Times New Roman;fontSize=22;fontColor=#CDA2BE;fontStyle=3;labelBackgroundColor=default;endArrow=classic;fillColor=#ffe6cc;" edge="1" parent="1" source="Bau23HHEuV97FUseU5D_-13" target="Bau23HHEuV97FUseU5D_-9">
          <mxGeometry relative="1" as="geometry" />
        </mxCell>
        <mxCell id="Bau23HHEuV97FUseU5D_-13" value="InstallData" style="strokeWidth=2;html=1;shape=mxgraph.flowchart.stored_data;whiteSpace=wrap;rounded=1;strokeColor=#A9C4EB;align=center;verticalAlign=middle;arcSize=14;fontFamily=Times New Roman;fontSize=22;fontColor=#CDA2BE;fontStyle=3;labelBackgroundColor=none;fillColor=#ffe6cc;direction=north;" vertex="1" parent="1">
          <mxGeometry x="660" y="260" width="115" height="40" as="geometry" />
        </mxCell>
        <mxCell id="Bau23HHEuV97FUseU5D_-14" style="edgeStyle=orthogonalEdgeStyle;rounded=1;orthogonalLoop=1;jettySize=auto;html=1;exitX=1;exitY=0.5;exitDx=0;exitDy=0;entryX=0.93;entryY=0.5;entryDx=0;entryDy=0;entryPerimeter=0;strokeColor=#A9C4EB;strokeWidth=2;align=center;verticalAlign=middle;arcSize=14;fontFamily=Times New Roman;fontSize=22;fontColor=#CDA2BE;fontStyle=3;labelBackgroundColor=default;endArrow=classic;fillColor=#ffe6cc;" edge="1" parent="1" source="Bau23HHEuV97FUseU5D_-8" target="Bau23HHEuV97FUseU5D_-13">
          <mxGeometry relative="1" as="geometry" />
        </mxCell>
        <mxCell id="Bau23HHEuV97FUseU5D_-15" style="edgeStyle=orthogonalEdgeStyle;rounded=1;orthogonalLoop=1;jettySize=auto;html=1;exitX=0;exitY=0.5;exitDx=0;exitDy=0;entryX=0.93;entryY=0.5;entryDx=0;entryDy=0;entryPerimeter=0;strokeColor=#A9C4EB;strokeWidth=2;align=center;verticalAlign=middle;arcSize=14;fontFamily=Times New Roman;fontSize=22;fontColor=#CDA2BE;fontStyle=3;labelBackgroundColor=default;endArrow=classic;fillColor=#ffe6cc;" edge="1" parent="1" source="Bau23HHEuV97FUseU5D_-8" target="Bau23HHEuV97FUseU5D_-11">
          <mxGeometry relative="1" as="geometry" />
        </mxCell>
        <mxCell id="Bau23HHEuV97FUseU5D_-16" value="&lt;span style=&quot;font-style: normal;&quot;&gt;GameStateModule&lt;/span&gt;" style="rounded=1;whiteSpace=wrap;html=1;absoluteArcSize=1;arcSize=14;strokeWidth=2;fillColor=#ffe6cc;strokeColor=#A9C4EB;fontSize=22;align=center;verticalAlign=middle;fontFamily=Times New Roman;fontStyle=3;fontColor=#CDA2BE;" vertex="1" parent="1">
          <mxGeometry x="500" y="390" width="185" height="40" as="geometry" />
        </mxCell>
        <mxCell id="Bau23HHEuV97FUseU5D_-17" value="&lt;span style=&quot;font-style: normal;&quot;&gt;PlayerModule&lt;/span&gt;" style="rounded=1;whiteSpace=wrap;html=1;absoluteArcSize=1;arcSize=14;strokeWidth=2;fillColor=#ffe6cc;strokeColor=#A9C4EB;fontSize=22;align=center;verticalAlign=middle;fontFamily=Times New Roman;fontStyle=3;fontColor=#CDA2BE;" vertex="1" parent="1">
          <mxGeometry x="340" y="530" width="140" height="40" as="geometry" />
        </mxCell>
        <mxCell id="Bau23HHEuV97FUseU5D_-18" value="&lt;span style=&quot;font-style: normal;&quot;&gt;StorageModule&lt;/span&gt;" style="rounded=1;whiteSpace=wrap;html=1;absoluteArcSize=1;arcSize=14;strokeWidth=2;fillColor=#ffe6cc;strokeColor=#A9C4EB;fontSize=22;align=center;verticalAlign=middle;fontFamily=Times New Roman;fontStyle=3;fontColor=#CDA2BE;" vertex="1" parent="1">
          <mxGeometry x="505" y="530" width="175" height="40" as="geometry" />
        </mxCell>
        <mxCell id="Bau23HHEuV97FUseU5D_-19" value="&lt;span style=&quot;font-style: normal;&quot;&gt;TerrainModule&lt;/span&gt;" style="rounded=1;whiteSpace=wrap;html=1;absoluteArcSize=1;arcSize=14;strokeWidth=2;fillColor=#ffe6cc;strokeColor=#A9C4EB;fontSize=22;align=center;verticalAlign=middle;fontFamily=Times New Roman;fontStyle=3;fontColor=#CDA2BE;" vertex="1" parent="1">
          <mxGeometry x="700" y="530" width="175" height="40" as="geometry" />
        </mxCell>
        <mxCell id="Bau23HHEuV97FUseU5D_-20" style="edgeStyle=orthogonalEdgeStyle;rounded=1;orthogonalLoop=1;jettySize=auto;html=1;exitX=0;exitY=0.5;exitDx=0;exitDy=0;exitPerimeter=0;entryX=0;entryY=0.5;entryDx=0;entryDy=0;strokeColor=#A9C4EB;strokeWidth=2;align=center;verticalAlign=middle;arcSize=14;fontFamily=Times New Roman;fontSize=22;fontColor=#CDA2BE;fontStyle=3;labelBackgroundColor=default;endArrow=classic;fillColor=#ffe6cc;" edge="1" parent="1" source="Bau23HHEuV97FUseU5D_-21" target="Bau23HHEuV97FUseU5D_-16">
          <mxGeometry relative="1" as="geometry" />
        </mxCell>
        <mxCell id="Bau23HHEuV97FUseU5D_-21" value="PlayerData" style="strokeWidth=2;html=1;shape=mxgraph.flowchart.stored_data;whiteSpace=wrap;rounded=1;strokeColor=#A9C4EB;align=center;verticalAlign=middle;arcSize=14;fontFamily=Times New Roman;fontSize=22;fontColor=#CDA2BE;fontStyle=3;labelBackgroundColor=none;fillColor=#ffe6cc;direction=south;" vertex="1" parent="1">
          <mxGeometry x="357.5" y="460" width="105" height="40" as="geometry" />
        </mxCell>
        <mxCell id="Bau23HHEuV97FUseU5D_-22" style="edgeStyle=orthogonalEdgeStyle;rounded=1;orthogonalLoop=1;jettySize=auto;html=1;exitX=0;exitY=0.5;exitDx=0;exitDy=0;exitPerimeter=0;entryX=0.5;entryY=1;entryDx=0;entryDy=0;strokeColor=#A9C4EB;strokeWidth=2;align=center;verticalAlign=middle;arcSize=14;fontFamily=Times New Roman;fontSize=22;fontColor=#CDA2BE;fontStyle=3;labelBackgroundColor=default;endArrow=classic;fillColor=#ffe6cc;" edge="1" parent="1" source="Bau23HHEuV97FUseU5D_-23" target="Bau23HHEuV97FUseU5D_-16">
          <mxGeometry relative="1" as="geometry" />
        </mxCell>
        <mxCell id="Bau23HHEuV97FUseU5D_-23" value="ItemsData" style="strokeWidth=2;html=1;shape=mxgraph.flowchart.stored_data;whiteSpace=wrap;rounded=1;strokeColor=#A9C4EB;align=center;verticalAlign=middle;arcSize=14;fontFamily=Times New Roman;fontSize=22;fontColor=#CDA2BE;fontStyle=3;labelBackgroundColor=none;fillColor=#ffe6cc;direction=south;" vertex="1" parent="1">
          <mxGeometry x="540" y="460" width="105" height="40" as="geometry" />
        </mxCell>
        <mxCell id="Bau23HHEuV97FUseU5D_-24" style="edgeStyle=orthogonalEdgeStyle;rounded=1;orthogonalLoop=1;jettySize=auto;html=1;exitX=0;exitY=0.5;exitDx=0;exitDy=0;exitPerimeter=0;entryX=1;entryY=0.5;entryDx=0;entryDy=0;strokeColor=#A9C4EB;strokeWidth=2;align=center;verticalAlign=middle;arcSize=14;fontFamily=Times New Roman;fontSize=22;fontColor=#CDA2BE;fontStyle=3;labelBackgroundColor=default;endArrow=classic;fillColor=#ffe6cc;" edge="1" parent="1" source="Bau23HHEuV97FUseU5D_-25" target="Bau23HHEuV97FUseU5D_-16">
          <mxGeometry relative="1" as="geometry" />
        </mxCell>
        <mxCell id="Bau23HHEuV97FUseU5D_-25" value="TerrainData" style="strokeWidth=2;html=1;shape=mxgraph.flowchart.stored_data;whiteSpace=wrap;rounded=1;strokeColor=#A9C4EB;align=center;verticalAlign=middle;arcSize=14;fontFamily=Times New Roman;fontSize=22;fontColor=#CDA2BE;fontStyle=3;labelBackgroundColor=none;fillColor=#ffe6cc;direction=south;" vertex="1" parent="1">
          <mxGeometry x="730" y="460" width="115" height="40" as="geometry" />
        </mxCell>
        <mxCell id="Bau23HHEuV97FUseU5D_-26" style="edgeStyle=orthogonalEdgeStyle;rounded=1;orthogonalLoop=1;jettySize=auto;html=1;exitX=0.5;exitY=0;exitDx=0;exitDy=0;entryX=0.93;entryY=0.5;entryDx=0;entryDy=0;entryPerimeter=0;strokeColor=#A9C4EB;strokeWidth=2;align=center;verticalAlign=middle;arcSize=14;fontFamily=Times New Roman;fontSize=22;fontColor=#CDA2BE;fontStyle=3;labelBackgroundColor=default;endArrow=classic;fillColor=#ffe6cc;" edge="1" parent="1" source="Bau23HHEuV97FUseU5D_-17" target="Bau23HHEuV97FUseU5D_-21">
          <mxGeometry relative="1" as="geometry" />
        </mxCell>
        <mxCell id="Bau23HHEuV97FUseU5D_-27" style="edgeStyle=orthogonalEdgeStyle;rounded=1;orthogonalLoop=1;jettySize=auto;html=1;exitX=0.5;exitY=0;exitDx=0;exitDy=0;entryX=0.93;entryY=0.5;entryDx=0;entryDy=0;entryPerimeter=0;strokeColor=#A9C4EB;strokeWidth=2;align=center;verticalAlign=middle;arcSize=14;fontFamily=Times New Roman;fontSize=22;fontColor=#CDA2BE;fontStyle=3;labelBackgroundColor=default;endArrow=classic;fillColor=#ffe6cc;" edge="1" parent="1" source="Bau23HHEuV97FUseU5D_-18" target="Bau23HHEuV97FUseU5D_-23">
          <mxGeometry relative="1" as="geometry" />
        </mxCell>
        <mxCell id="Bau23HHEuV97FUseU5D_-28" style="edgeStyle=orthogonalEdgeStyle;rounded=1;orthogonalLoop=1;jettySize=auto;html=1;exitX=0.5;exitY=0;exitDx=0;exitDy=0;entryX=0.93;entryY=0.5;entryDx=0;entryDy=0;entryPerimeter=0;strokeColor=#A9C4EB;strokeWidth=2;align=center;verticalAlign=middle;arcSize=14;fontFamily=Times New Roman;fontSize=22;fontColor=#CDA2BE;fontStyle=3;labelBackgroundColor=default;endArrow=classic;fillColor=#ffe6cc;" edge="1" parent="1" source="Bau23HHEuV97FUseU5D_-19" target="Bau23HHEuV97FUseU5D_-25">
          <mxGeometry relative="1" as="geometry" />
        </mxCell>
      </root>
    </mxGraphModel>
  </diagram>
</mxfile>
